<?xml version="1.0" encoding="utf-8"?>
<!-- Generator: Adobe Illustrator 28.0.0, SVG Export Plug-In . SVG Version: 6.00 Build 0)  -->
<svg version="1.1" id="Layer_1" xmlns="http://www.w3.org/2000/svg" xmlns:xlink="http://www.w3.org/1999/xlink" x="0px" y="0px"
	 viewBox="0 0 360 360" style="enable-background:new 0 0 360 360;" xml:space="preserve">
<style type="text/css">
	.st0{fill:#36506C;stroke:#36506C;stroke-width:4;stroke-miterlimit:10;}
	.st1{fill:#42C2C9;stroke:#36506C;stroke-width:2;stroke-miterlimit:10;}
	.st2{fill:#EF5385;}
	.st3{font-family:'Arial-BoldMT';}
	.st4{font-size:14.212px;}
</style>
<g>
	<g>
		<path class="st0" d="M205.4,30.28L180,87.25"/>
		<path class="st0" d="M264.85,64.45l-77.42,30.56"/>
		<path class="st0" d="M266.03,51.68l-42.8-26.84"/>
		<path class="st0" d="M250.04,151.46l-64.06-43.28"/>
		<path class="st0" d="M264.1,145.39l11.7-72.13"/>
		<path class="st0" d="M173.98,163.94l94.07-94.63"/>
		<path class="st0" d="M178.02,171.92l69.74-10.41"/>
		<path class="st0" d="M91.07,143.9L201.41,27.61"/>
		<path class="st0" d="M159.67,328.74l3.9-140.51"/>
		<path class="st0" d="M153.85,329.81L86.72,167.34"/>
		<path class="st0" d="M113.19,40.59l84.18-20.01"/>
		<path class="st0" d="M113.52,45.1l150.39,12.92"/>
		<path class="st0" d="M105.68,56.61l51.96,104.68"/>
		<path class="st0" d="M97.06,57.91l-13.48,82.28"/>
		<path class="st0" d="M102.15,57.82l54.33,271.19"/>
	</g>
	<g>
		<path class="st1" d="M187.86,100.12c0.03,7.36-5.92,13.34-13.28,13.37c-7.36,0.03-13.34-5.92-13.37-13.28
			c-0.03-7.36,5.92-13.34,13.28-13.37c7.35-0.03,13.34,5.91,13.37,13.26L187.86,100.12z"/>
		<path class="st1" d="M224.84,17.18c0,7.36-5.97,13.32-13.33,13.32c-7.36,0-13.32-5.97-13.32-13.33s5.97-13.32,13.33-13.32
			c7.35,0,13.31,5.96,13.32,13.32V17.18z"/>
		<path class="st1" d="M291.71,59.12c0,7.36-5.97,13.32-13.33,13.32c-7.36,0-13.32-5.97-13.32-13.33c0-7.36,5.97-13.32,13.33-13.32
			c7.35,0,13.31,5.96,13.32,13.32V59.12z"/>
		<path class="st1" d="M275.47,159.3c0,7.36-5.97,13.32-13.33,13.32c-7.36,0-13.32-5.97-13.32-13.33s5.97-13.32,13.33-13.32
			c7.35,0,13.31,5.96,13.32,13.32V159.3z"/>
		<path class="st1" d="M177.61,173.91c0,7.36-5.97,13.32-13.33,13.32c-7.36,0-13.32-5.97-13.32-13.33c0-7.36,5.97-13.32,13.33-13.32
			c7.35,0,13.31,5.96,13.32,13.32V173.91z"/>
		<path class="st1" d="M94.93,154.09c0,7.36-5.97,13.32-13.33,13.32c-7.36,0-13.32-5.97-13.32-13.33c0-7.36,5.97-13.32,13.33-13.32
			c7.35,0,13.31,5.96,13.32,13.32V154.09z"/>
		<path class="st1" d="M172.92,342.83c0,7.36-5.97,13.32-13.33,13.32c-7.36,0-13.32-5.97-13.32-13.33c0-7.36,5.97-13.32,13.33-13.32
			c7.35,0,13.31,5.96,13.32,13.32V342.83z"/>
		<path class="st1" d="M113.01,43.77c0,7.36-5.97,13.32-13.33,13.32c-7.36,0-13.32-5.97-13.32-13.33c0-7.36,5.97-13.32,13.33-13.32
			c7.35,0,13.31,5.96,13.32,13.32V43.77z"/>
	</g>
	<g>
		<text transform="matrix(1 0 0 1 170.2603 104.6688)" class="st2 st3 st4">0</text>
		<text transform="matrix(1 0 0 1 207.2379 21.7362)" class="st2 st3 st4">1</text>
		<text transform="matrix(1 0 0 1 274.1168 63.6727)" class="st2 st3 st4">2</text>
		<text transform="matrix(1 0 0 1 257.8687 163.8558)" class="st2 st3 st4">3</text>
		<text transform="matrix(1 0 0 1 160.0108 178.4613)" class="st2 st3 st4">4</text>
		<text transform="matrix(1 0 0 1 77.3355 158.6468)" class="st2 st3 st4">5</text>
		<text transform="matrix(1 0 0 1 155.3258 347.3822)" class="st2 st3 st4">6</text>
		<text transform="matrix(1 0 0 1 95.4078 48.3216)" class="st2 st3 st4">7</text>
	</g>
</g>
</svg>
