<?xml version="1.0" encoding="utf-8"?>
<!-- Generator: Adobe Illustrator 28.0.0, SVG Export Plug-In . SVG Version: 6.00 Build 0)  -->
<svg version="1.1" id="Layer_1" xmlns="http://www.w3.org/2000/svg" xmlns:xlink="http://www.w3.org/1999/xlink" x="0px" y="0px"
	 viewBox="0 0 1898.6 456.6" style="enable-background:new 0 0 1898.6 456.6;" xml:space="preserve">
<style type="text/css">
	.st0{fill:#364F6B;stroke:#364F6B;stroke-width:4;stroke-miterlimit:10;}
	.st1{fill:#3FC1C9;stroke:#364F6B;stroke-width:2;stroke-miterlimit:10;}
	.st2{fill:#FC5185;}
	.st3{font-family:'Arial-BoldMT';}
	.st4{font-size:16px;}
	.st5{fill:#364F6B;}
	<!-- @media ( prefers-color-scheme: dark ){.st0{fill:#FFF;;stroke:#FFF;} .st5{fill:#FFF;}} -->
</style>
<g>
	<g>
		<path class="st0" d="M169.3,48.7l-28.6,64.1"/>
		<path class="st0" d="M236.2,87.2l-87.2,34.4"/>
		<path class="st0" d="M237.6,72.8l-48.2-30.2"/>
		<path class="st0" d="M219.6,185.2l-72.1-48.7"/>
		<path class="st0" d="M235.4,178.3l13.2-81.2"/>
		<path class="st0" d="M133.9,199.2L239.8,92.7"/>
		<path class="st0" d="M138.5,208.2l78.5-11.7"/>
		<path class="st0" d="M40.6,176.7L164.8,45.7"/>
		<path class="st0" d="M117.8,384.7l4.4-158.2"/>
		<path class="st0" d="M111.3,386L35.7,203"/>
		<path class="st0" d="M65.5,60.4l94.8-22.5"/>
		<path class="st0" d="M65.9,65.4L235.2,80"/>
		<path class="st0" d="M57,78.4l58.5,117.9"/>
		<path class="st0" d="M47.3,79.8l-15.2,92.6"/>
		<path class="st0" d="M53.1,79.7l61.2,305.3"/>
	</g>
	<g>
		<path class="st1" d="M149.6,127.4c0,8.3-6.7,15-14.9,15.1c-8.3,0-15-6.7-15.1-14.9s6.7-15,14.9-15.1
			C142.8,112.4,149.5,119.1,149.6,127.4L149.6,127.4z"/>
		<path class="st1" d="M191.2,34c0,8.3-6.7,15-15,15c-8.3,0-15-6.7-15-15s6.7-15,15-15C184.5,19,191.2,25.7,191.2,34L191.2,34z"/>
		<path class="st1" d="M266.5,81.2c0,8.3-6.7,15-15,15c-8.3,0-15-6.7-15-15s6.7-15,15-15C259.8,66.2,266.5,72.9,266.5,81.2
			L266.5,81.2z"/>
		<path class="st1" d="M248.2,194c0,8.3-6.7,15-15,15c-8.3,0-15-6.7-15-15s6.7-15,15-15C241.5,179,248.2,185.7,248.2,194L248.2,194z
			"/>
		<path class="st1" d="M138,210.4c0,8.3-6.7,15-15,15c-8.3,0-15-6.7-15-15s6.7-15,15-15C131.3,195.4,138,202.1,138,210.4L138,210.4z
			"/>
		<path class="st1" d="M44.9,188.1c0,8.3-6.7,15-15,15c-8.3,0-15-6.7-15-15s6.7-15,15-15C38.2,173.1,44.9,179.8,44.9,188.1
			L44.9,188.1z"/>
		<path class="st1" d="M132.7,400.6c0,8.3-6.7,15-15,15c-8.3,0-15-6.7-15-15c0-8.3,6.7-15,15-15C126,385.6,132.7,392.3,132.7,400.6
			L132.7,400.6z"/>
		<path class="st1" d="M65.3,63.9c0,8.3-6.7,15-15,15c-8.3,0-15-6.7-15-15s6.7-15,15-15C58.6,48.9,65.3,55.6,65.3,63.9L65.3,63.9z"
			/>
	</g>
	<g>
		<text transform="matrix(1 0 0 1 129.7487 132.4908)" class="st2 st3 st4">0</text>
		<text transform="matrix(1 0 0 1 171.3788 39.1242)" class="st2 st3 st4">1</text>
		<text transform="matrix(1 0 0 1 246.6718 86.3369)" class="st2 st3 st4">2</text>
		<text transform="matrix(1 0 0 1 228.3788 199.1242)" class="st2 st3 st4">3</text>
		<text transform="matrix(1 0 0 1 118.2102 215.5677)" class="st2 st3 st4">4</text>
		<text transform="matrix(1 0 0 1 25.1333 193.26)" class="st2 st3 st4">5</text>
		<text transform="matrix(1 0 0 1 112.935 405.7408)" class="st2 st3 st4">6</text>
		<text transform="matrix(1 0 0 1 45.4794 69.0544)" class="st2 st3 st4">7</text>
	</g>
</g>
<g>
	<path class="st5" d="M348.9,329.1V123.9h98.2c11.3,0,21.1,4.1,29.3,12.4c8.2,8.2,12.3,18.1,12.3,29.5v51.9
		c0,11.4-4.1,21.2-12.2,29.3c-8.1,8.1-17.9,12.2-29.3,12.2h-70.2v69.9c0,3.8-1.3,7.1-4,9.8c-2.7,2.7-6,4-9.8,4c-4,0-7.3-1.3-10.1-4
		C350.3,336.2,348.9,332.9,348.9,329.1z M376.9,231.5h70.2c3.7,0,7-1.3,9.7-4c2.7-2.7,4.1-6,4.1-9.8v-51.9c0-3.8-1.4-7.1-4.1-9.8
		c-2.7-2.7-6-4-9.7-4h-70.2V231.5z"/>
	<path class="st5" d="M523.1,342.9V137.7c0-3.7,1.4-7,4.1-9.7c2.7-2.7,6-4.1,9.7-4.1c3.7,0,7,1.4,9.7,4.1c2.7,2.7,4.1,6,4.1,9.7
		v177.5h97.9c3.8,0,7.2,1.3,10,4c2.8,2.7,4.2,6,4.2,9.8c0,3.8-1.4,7.1-4.2,9.8c-2.8,2.7-6.1,4-10,4H523.1z"/>
	<path class="st5" d="M698.1,323.6l55.8-189.5c2.2-6.9,6.9-10.3,14-10.3c6.9,0,11.2,2.9,13,8.7L836.1,325c0.4,1.4,0.7,2.8,0.7,4.1
		c0,3.8-1.3,7.1-4,9.8c-2.6,2.7-5.7,4-9.1,4c-7.2,0-11.9-3.4-13.8-10.1l-10.9-37.6h-63.4l-12.1,40.3c-0.3,1.8-1.7,3.4-4.1,5
		c-2.4,1.6-5.1,2.4-8,2.4c-4.1,0-7.5-1.4-10.1-4.1c-2.7-2.7-4-6.1-4-10.1C697.3,327.1,697.6,325.4,698.1,323.6z M767.7,188
		l-23.8,79.3h46.9L767.7,188z"/>
	<path class="st5" d="M1010.9,138v204.9h-37.1l-74.6-170.1v156.3c0,3.8-1.3,7.1-4,9.8c-2.7,2.7-6,4-9.8,4c-3.8,0-7.1-1.3-9.8-4
		c-2.7-2.7-4-6-4-9.8V123.9h36.6l74.8,169.8V138c0-3.8,1.4-7.2,4.2-10c2.8-2.8,6.1-4.2,10-4.2c3.8,0,7.1,1.4,9.8,4.1
		C1009.6,130.7,1010.9,134.1,1010.9,138z"/>
	<path class="st5" d="M1046.5,323.6l55.8-189.5c2.2-6.9,6.9-10.3,14-10.3c6.9,0,11.2,2.9,13,8.7l55.2,192.4c0.4,1.4,0.7,2.8,0.7,4.1
		c0,3.8-1.3,7.1-4,9.8c-2.6,2.7-5.7,4-9.1,4c-7.2,0-11.9-3.4-13.8-10.1l-10.9-37.6h-63.4l-12.1,40.3c-0.3,1.8-1.7,3.4-4.1,5
		c-2.4,1.6-5.1,2.4-8,2.4c-4.1,0-7.5-1.4-10.1-4.1c-2.7-2.7-4-6.1-4-10.1C1045.7,327.1,1046,325.4,1046.5,323.6z M1116.1,188
		l-23.8,79.3h46.9L1116.1,188z"/>
	<path class="st5" d="M1220.2,329.1V123.9h97.9c11.3,0,21.1,4.1,29.3,12.4c8.2,8.2,12.3,18.1,12.3,29.5v15.8
		c0,11.5-4.1,21.4-12.2,29.6c-8.1,8.2-17.9,12.3-29.3,12.3h-17.6l56.5,97.3c1.8,2.9,2.6,5.7,2.6,8.6c0,3.7-1.4,7-4.3,9.6
		c-2.9,2.7-6.1,4-9.8,4c-5.5,0-9.7-2.4-12.5-7.4l-64.8-112.1h-20v105.7c0,3.8-1.4,7.1-4.2,9.8c-2.8,2.7-6.1,4-10,4
		c-3.8,0-7.1-1.3-9.8-4C1221.6,336.2,1220.2,332.9,1220.2,329.1z M1247.9,195.7h70.2c3.8,0,7.1-1.3,9.8-4c2.7-2.7,4-6,4-9.8v-16.2
		c0-3.8-1.3-7.1-4-9.8c-2.7-2.7-6-4-9.8-4h-70.2V195.7z"/>
	<path class="st5" d="M1407.6,123.9h112.1c3.6,0,6.8,1.4,9.6,4.1c2.8,2.7,4.2,6,4.2,9.7c0,3.8-1.4,7.2-4.1,10
		c-2.7,2.8-6,4.2-9.7,4.2h-41.9v163.4h41.9c3.8,0,7.1,1.3,9.8,4c2.7,2.7,4,6,4,9.8c0,3.8-1.4,7.1-4.1,9.8c-2.7,2.7-6,4-9.7,4h-112.1
		c-3.8,0-7.1-1.3-9.8-4c-2.7-2.7-4-6-4-9.8c0-3.8,1.3-7.1,4-9.8c2.7-2.7,6-4,9.8-4h42.5V151.9h-42.5c-3.8,0-7.1-1.4-9.8-4.1
		c-2.7-2.7-4-6-4-9.7c0-4,1.3-7.3,4-10.1C1400.5,125.2,1403.8,123.9,1407.6,123.9z"/>
	<path class="st5" d="M1568,161.6v-37.4h139.8v37.7c0,3.8-1.4,7.1-4.1,9.8c-2.7,2.7-6,4-9.7,4c-3.8,0-7.2-1.4-10-4.1
		c-2.8-2.7-4.2-6-4.2-9.7v-10.1h-28v177.2c0,3.8-1.4,7.1-4.1,9.8c-2.7,2.7-6,4-9.7,4c-4,0-7.3-1.3-10.1-4c-2.7-2.7-4.1-6-4.1-9.8
		V151.9h-28v9.7c0,3.8-1.3,7.1-4,9.8c-2.7,2.7-6,4-9.8,4c-3.8,0-7.1-1.3-9.8-4C1569.3,168.7,1568,165.5,1568,161.6z"/>
	<path class="st5" d="M1826.6,237.8v91.3c0,3.9-1.4,7.1-4.1,9.8c-2.7,2.7-6,4-9.7,4c-4,0-7.3-1.3-10.1-4c-2.7-2.7-4.1-6-4.1-9.8
		v-91.2l-55.7-70.5V138c0-4,1.3-7.3,4-10.1c2.7-2.7,6-4.1,9.8-4.1c3.8,0,7.2,1.4,10,4.2c2.8,2.8,4.2,6.2,4.2,10v19.1l41.5,53.4
		l42.2-53.3V138c0-3.8,1.4-7.2,4.1-9.9c2.7-2.8,6-4.2,9.7-4.2c3.6,0,6.8,1.3,9.6,3.9c2.8,2.6,4.2,6,4.2,10.3v29L1826.6,237.8z"/>
</g>
</svg>
